<svg width="64" height="64" viewBox="0 0 64 64" fill="none" xmlns="http://www.w3.org/2000/svg">
<path opacity="0.6" d="M40.5564 22.0292C40.3174 22.4982 40.2042 23.0287 40.1485 23.7111C40.0931 24.3883 40.0931 25.2368 40.0931 26.347V26.3587V37.5587V37.5703C40.0931 38.6806 40.0931 39.529 40.1485 40.2062C40.2042 40.8887 40.3174 41.4192 40.5564 41.8881C40.9638 42.6878 41.614 43.338 42.4137 43.7455C42.8826 43.9844 43.4131 44.0976 44.0956 44.1534C44.7728 44.2087 45.6212 44.2087 46.7315 44.2087H46.7431H49.9431H49.9548C51.0651 44.2087 51.9135 44.2087 52.5907 44.1534C53.2732 44.0976 53.8037 43.9844 54.2726 43.7455C55.0723 43.338 55.7225 42.6878 56.1299 41.8881C56.3689 41.4192 56.4821 40.8887 56.5378 40.2062C56.5931 39.529 56.5931 38.6806 56.5931 37.5703V37.5587V26.3587V26.347C56.5931 25.2368 56.5931 24.3883 56.5378 23.7111C56.4821 23.0287 56.3689 22.4982 56.1299 22.0292C55.7225 21.2295 55.0723 20.5794 54.2726 20.1719C53.8037 19.933 53.2732 19.8198 52.5907 19.764C51.9135 19.7087 51.065 19.7087 49.9548 19.7087H49.9431H46.7431H46.7315C45.6212 19.7087 44.7728 19.7087 44.0956 19.764C43.4131 19.8198 42.8826 19.933 42.4137 20.1719C41.614 20.5794 40.9638 21.2295 40.5564 22.0292Z" fill="#06B6D4" stroke="#06B6D4" stroke-width="0.5"/>
<path opacity="0.4" d="M18.3798 26.1596L18.3798 26.1596L22.0916 40.0125C21.8879 39.982 21.6861 39.9346 21.4882 39.8703C21.0755 39.7362 20.6779 39.4869 20.1796 39.0638C19.679 38.6389 19.0933 38.0534 18.2983 37.2585L10.3787 29.3389C9.58378 28.5439 8.99834 27.9582 8.57337 27.4576C8.1503 26.9593 7.90099 26.5617 7.76687 26.149C7.52215 25.3958 7.52215 24.5845 7.76687 23.8314C7.90099 23.4186 8.1503 23.0211 8.57338 22.5227C8.99834 22.0221 9.58379 21.4364 10.3787 20.6415L12.6415 18.3787C13.4364 17.5838 14.0222 16.9983 14.5227 16.5734C15.0211 16.1503 15.4186 15.901 15.8314 15.7669C16.5845 15.5221 17.3958 15.5221 18.149 15.7669C18.6773 15.9385 19.1756 16.2965 19.8885 16.9577C19.871 16.973 19.8537 16.9884 19.8363 17.0041C18.7509 17.9814 18.0027 19.2773 17.699 20.7061C17.4872 21.7023 17.5728 22.6323 17.7252 23.4688C17.8668 24.2457 18.1107 25.1556 18.3775 26.1513L18.3798 26.1596Z" fill="#06B6D4" stroke="#06B6D4" stroke-width="0.5"/>
<path d="M26.6067 25.0684C26.8262 25.0096 26.9755 24.847 27.0545 24.5808C27.1346 24.3126 27.1079 23.9325 26.9744 23.4405C26.8882 23.1188 26.7857 22.8644 26.667 22.6773C26.5482 22.4902 26.4194 22.3629 26.2804 22.2956C26.141 22.2267 25.9982 22.2119 25.8518 22.2511C25.6323 22.3099 25.483 22.4692 25.4039 22.729C25.3248 22.9887 25.3483 23.3599 25.4743 23.8424C25.5606 24.1706 25.6642 24.4321 25.785 24.6268C25.9054 24.8201 26.0355 24.9519 26.1752 25.0223C26.3165 25.0922 26.4604 25.1076 26.6067 25.0684Z" fill="#06B6D4"/>
<path fill-rule="evenodd" clip-rule="evenodd" d="M21.222 25.4465C20.6422 23.2827 20.3522 22.2007 20.5519 21.2614C20.7275 20.4351 21.1602 19.6857 21.788 19.1205C22.5016 18.4779 23.5836 18.188 25.7474 17.6082L33.99 15.3996C36.1539 14.8198 37.2358 14.5299 38.1752 14.7295C39.0014 14.9052 39.7509 15.3379 40.3161 15.9656C40.7347 16.4306 41.0037 17.0518 41.3006 18.0268C40.0535 18.6664 39.0396 19.683 38.4031 20.9321C37.9617 21.7985 37.8078 22.6824 37.7398 23.5144C37.6764 24.2912 37.6764 25.2249 37.6765 26.2625V37.655C37.6764 38.6925 37.6764 39.6262 37.7398 40.403C37.8078 41.235 37.9617 42.1189 38.4031 42.9853C39.0423 44.2397 40.0621 45.2596 41.3166 45.8987C41.6524 46.0699 41.991 46.1978 42.3281 46.2942L34.0297 48.5178C31.8658 49.0976 30.7838 49.3875 29.8445 49.1879C29.0183 49.0122 28.2688 48.5795 27.7036 47.9518C27.061 47.2381 26.7711 46.1562 26.1913 43.9923L21.222 25.4465ZM30.4901 19.9789L31.745 24.6622L30.4735 25.0029L29.5324 21.4904L29.5049 21.4978L28.6447 22.3851L28.3554 21.3058L29.3193 20.2926L30.4901 19.9789ZM26.8837 26.102C26.4579 26.2145 26.0642 26.2146 25.7024 26.1024C25.3406 25.9902 25.0267 25.7728 24.7606 25.4503C24.4944 25.1279 24.2933 24.7095 24.1571 24.1954C24.0206 23.6797 23.9872 23.2197 24.057 22.8154C24.1283 22.4107 24.2928 22.0733 24.5505 21.8033C24.8097 21.5328 25.152 21.3406 25.5773 21.2267C26.0027 21.1127 26.3954 21.1088 26.7555 21.2149C27.1152 21.3195 27.4271 21.5292 27.6912 21.844C27.9553 22.1589 28.1555 22.5734 28.2916 23.0876C28.4301 23.6044 28.4647 24.0689 28.3954 24.4813C28.3262 24.8936 28.163 25.2388 27.9058 25.5169C27.6497 25.793 27.309 25.9881 26.8837 26.102Z" fill="#06B6D4"/>
</svg>
