<svg width="16" height="10" viewBox="0 0 16 10" fill="none" xmlns="http://www.w3.org/2000/svg">
<path d="M8 1.33333C10.5267 1.33333 12.78 2.75333 13.88 5C12.78 7.24667 10.5267 8.66667 8 8.66667C5.47334 8.66667 3.22 7.24667 2.12001 5C3.22 2.75333 5.47334 1.33333 8 1.33333ZM8 0C4.66667 0 1.82001 2.07333 0.666672 5C1.82001 7.92667 4.66667 10 8 10C11.3333 10 14.18 7.92667 15.3333 5C14.18 2.07333 11.3333 0 8 0ZM8 3.33333C8.92 3.33333 9.66667 4.08 9.66667 5C9.66667 5.92 8.92 6.66667 8 6.66667C7.08 6.66667 6.33334 5.92 6.33334 5C6.33334 4.08 7.08 3.33333 8 3.33333ZM8 2C6.34667 2 5 3.34667 5 5C5 6.65333 6.34667 8 8 8C9.65334 8 11 6.65333 11 5C11 3.34667 9.65334 2 8 2Z" fill="#6B7280"/>
</svg>
