<svg width="17" height="16" viewBox="0 0 17 16" fill="none" xmlns="http://www.w3.org/2000/svg">
<path fill-rule="evenodd" clip-rule="evenodd" d="M5.83334 1.33334C3.6242 1.33334 1.83334 3.12419 1.83334 5.33333V10.6667C1.83334 12.8758 3.62419 14.6667 5.83333 14.6667L8.42052 14.6667V10.1052H6.844V8.32753H8.42052V7.01661C8.42052 5.49514 9.37459 4.66667 10.7687 4.66667C11.4365 4.66667 12.01 4.71526 12.1773 4.73685V6.32704L11.2107 6.32753C10.4526 6.32753 10.306 6.67845 10.306 7.1928V8.32802H12.1138L11.8785 10.1057H10.306V14.6667L11.1667 14.6667C13.3758 14.6667 15.1667 12.8758 15.1667 10.6667V5.33334C15.1667 3.1242 13.3758 1.33334 11.1667 1.33334H5.83334Z" fill="#6B7280"/>
</svg>
