<svg width="14" height="16" viewBox="0 0 14 16" fill="none" xmlns="http://www.w3.org/2000/svg">
<path d="M2.00001 13.3333V6.66667H10V7.33334C10.4667 7.33334 10.9133 7.4 11.3333 7.52667V6.66667C11.3333 5.93334 10.7333 5.33334 10 5.33334H9.33334V4C9.33334 2.16001 7.84 0.666672 6 0.666672C4.16 0.666672 2.66667 2.16001 2.66667 4V5.33334H2.00001C1.26667 5.33334 0.666672 5.93334 0.666672 6.66667V13.3333C0.666672 14.0667 1.26667 14.6667 2.00001 14.6667H6.17334C5.89334 14.2667 5.67334 13.8133 5.52667 13.3333H2.00001ZM4 4C4 2.89334 4.89334 2.00001 6 2.00001C7.10667 2.00001 8 2.89334 8 4V5.33334H4V4Z" fill="#6B7280"/>
<path d="M10 8.66667C8.16 8.66667 6.66667 10.16 6.66667 12C6.66667 13.84 8.16 15.3333 10 15.3333C11.84 15.3333 13.3333 13.84 13.3333 12C13.3333 10.16 11.84 8.66667 10 8.66667ZM10 10C10.5533 10 11 10.4467 11 11C11 11.5533 10.5533 12 10 12C9.44667 12 9 11.5533 9 11C9 10.4467 9.44667 10 10 10ZM10 14C9.31334 14 8.70667 13.6533 8.34667 13.12C8.83334 12.84 9.39334 12.6667 10 12.6667C10.6067 12.6667 11.1667 12.84 11.6533 13.12C11.2933 13.6533 10.6867 14 10 14Z" fill="#6B7280"/>
</svg>
