<svg width="17" height="16" viewBox="0 0 17 16" fill="none" xmlns="http://www.w3.org/2000/svg">
<path fill-rule="evenodd" clip-rule="evenodd" d="M15.1667 3.94945C14.6761 4.16722 14.1489 4.31389 13.5956 4.38C14.1606 4.04167 14.5944 3.50556 14.7983 2.86667C14.27 3.18 13.6844 3.40778 13.0611 3.53056C12.5628 2.99889 11.8511 2.66667 11.0644 2.66667C9.29834 2.66667 8.00056 4.31445 8.39945 6.025C6.12667 5.91111 4.11111 4.82222 2.76167 3.16722C2.045 4.39667 2.39 6.005 3.60778 6.81945C3.16 6.805 2.73778 6.68222 2.36945 6.47722C2.33945 7.74445 3.24778 8.93 4.56334 9.19389C4.17834 9.29833 3.75667 9.32278 3.32778 9.24056C3.67556 10.3272 4.68556 11.1178 5.88334 11.14C4.73334 12.0417 3.28445 12.4444 1.83334 12.2733C3.04389 13.0494 4.48222 13.5022 6.02667 13.5022C11.1056 13.5022 13.975 9.21278 13.8017 5.36556C14.3361 4.97945 14.8 4.49778 15.1667 3.94945Z" fill="#6B7280"/>
</svg>
